<svg xmlns="http://www.w3.org/2000/svg" viewBox="0 0 512 512"><g id="Шар_2" data-name="Шар 2"><g id="Шар_1-2" data-name="Шар 1"><path d="M256,512C114.79,512,0,397.21,0,256S114.79,0,256,0,512,114.79,512,256,397.21,512,256,512Zm0-492.34c-130.25,0-236.34,106-236.34,236.34S125.75,492.34,256,492.34,492.34,386.36,492.34,256,386.25,19.66,256,19.66Z"/><path d="M65.33,340.89a209.94,209.94,0,0,0,97.9,101.48L264.7,340.89Z"/><path d="M60.21,181.15a209.7,209.7,0,0,0-2.56,140H200.19Z"/><path d="M170,64.1A210.16,210.16,0,0,0,68.61,161.79L170.19,263.37Z"/><path d="M182.58,450.76A207.05,207.05,0,0,0,252.31,464a211.07,211.07,0,0,0,70.45-10.85V310.48Z"/><path d="M342.43,274.43h.2V445.34A210.17,210.17,0,0,0,443.7,347.55L342.53,246.37l-.1,28.06Z"/><path d="M329.83,59a209.22,209.22,0,0,0-140.08-2.66l.1,142.64Z"/><path d="M446.67,168.55A209.83,209.83,0,0,0,349.29,67.48L248.22,168.55Z"/><path d="M452,328.09a209.2,209.2,0,0,0,13.21-69.63,206.85,206.85,0,0,0-10.85-70.15H312.12Z"/></g></g></svg>