<svg xmlns="http://www.w3.org/2000/svg" viewBox="0 0 512 512"><path d="M255.9 124.1c-72.3 0-132.1 58.8-132.1 132.1s58.8 132.1 132.1 132.1S388 328.5 388 256.2s-59.9-132.1-132.1-132.1zm0 216.8c-46.5 0-84.6-38.2-84.6-84.6s38.2-84.6 84.6-84.6 84.6 38.2 84.6 84.6-38.2 84.6-84.6 84.6z"/><circle cx="393.1" cy="121" r="29.9"/><path d="M470.6 43.6c-26.8-27.9-65-42.3-108.4-42.3H149.5C59.7 1.2-.2 61.1-.2 150.9v211.6c0 44.4 14.5 82.6 43.4 110.5 27.9 26.8 65 40.3 107.4 40.3h210.6c44.4 0 81.5-14.5 108.4-40.3 27.9-26.8 42.3-65 42.3-109.4V150.9c0-43.3-14.5-80.5-41.3-107.3zm-4.2 320c0 32-11.4 57.8-29.9 75.4-18.6 17.5-44.4 26.8-75.4 26.8H150.6c-31 0-56.8-9.3-75.4-26.8-18.6-18.6-27.9-44.4-27.9-76.4V150.9c0-31 9.3-56.8 27.9-75.4 17.5-17.5 44.4-26.8 75.4-26.8h212.6c31 0 56.8 9.3 75.4 27.9 17.5 18.6 27.9 44.4 27.9 74.3v212.7z"/></svg>