<svg viewBox="0 0 18 18">
	<path fill-rule="evenodd" clip-rule="evenodd"
		d="M2.6329 3.21721C2.63457 3.21721 2.5929 3.26054 2.5404 3.31221C2.33873 3.50804 1.92123 3.91554 1.91707 4.76804C1.9104 5.96054 2.69457 8.17471 6.4704 11.9497C10.2287 15.7064 12.4396 16.4997 13.6346 16.4997H13.6521C14.5046 16.4955 14.9112 16.0772 15.1079 15.8764C15.1679 15.8147 15.2162 15.7697 15.2504 15.7414C16.0804 14.9064 16.5054 14.2847 16.5012 13.8864C16.4954 13.4797 15.9896 12.9989 15.2904 12.3339C15.0679 12.1222 14.8262 11.8922 14.5712 11.6372C13.9104 10.978 13.5829 11.0905 12.8629 11.3439C11.8671 11.693 10.5004 12.168 8.37707 10.0439C6.2504 7.91887 6.72623 6.55387 7.07457 5.55804C7.32623 4.83804 7.44124 4.50971 6.77957 3.84804C6.5204 3.58971 6.2879 3.34471 6.07373 3.11971C5.4129 2.42471 4.93623 1.92221 4.53207 1.91637H4.5254C4.12623 1.91637 3.50623 2.34304 2.62873 3.22054C2.63123 3.21804 2.63207 3.21721 2.6329 3.21721ZM13.6354 17.7497C11.5587 17.7497 8.85123 16.0964 5.58706 12.8339C2.3104 9.55805 0.654562 6.84222 0.667062 4.76139C0.674562 3.38639 1.3954 2.68222 1.66623 2.41805C1.6804 2.40055 1.72873 2.35305 1.7454 2.33639C2.9404 1.14055 3.74623 0.657221 4.5479 0.666388C5.47873 0.678888 6.14123 1.37555 6.97956 2.25805C7.18706 2.47639 7.41206 2.71389 7.6629 2.96389C8.87956 4.18055 8.5329 5.17305 8.25456 5.96972C7.95123 6.83889 7.68873 7.58889 9.2604 9.16055C10.8337 10.7322 11.5837 10.4697 12.4496 10.1639C13.2471 9.88555 14.2371 9.53722 15.4554 10.7539C15.7021 11.0006 15.9362 11.2231 16.1521 11.4289C17.0387 12.2714 17.7387 12.9372 17.7504 13.8706C17.7604 14.6664 17.2771 15.4772 16.0837 16.6714L15.5554 16.3131L16.0021 16.7497C15.7379 17.0206 15.0346 17.7422 13.6587 17.7497H13.6354Z"
		 />
</svg>