<?xml version="1.0" encoding="utf-8"?>
<!-- Generator: Adobe Illustrator 25.0.0, SVG Export Plug-In . SVG Version: 6.00 Build 0)  -->
<svg version="1.1" id="Capa_1" xmlns="http://www.w3.org/2000/svg" xmlns:xlink="http://www.w3.org/1999/xlink" x="0px" y="0px"
	 viewBox="0 0 25.8 25.8" enable-background="new 0 0 25.8 25.8" xml:space="preserve">
<g>
	<path d="M25.8,5c0,3.9-1.7,6.8-1.8,6.9c-0.1,0.2-0.4,0.4-0.7,0.4c-0.1,0-0.3,0-0.4-0.1c-0.4-0.2-0.5-0.7-0.3-1.1
		c0,0,1.6-2.6,1.6-6.1c0-2-1.3-3.4-3.1-3.4c-1.7,0-3.1,1.4-3.1,3.1c0,0.7,0.3,2.6,0.5,3.2c0.1,0.4-0.2,0.8-0.6,0.9
		c-0.4,0.1-0.8-0.2-0.9-0.6c-0.1-0.3-0.5-2.5-0.5-3.5c0-2.5,2.1-4.6,4.6-4.6C23.9,0,25.8,2.1,25.8,5z M21.4,6.2
		c0.3,2.5,0.7,7.5,0.2,8L10.5,25.3C9.8,26,8.7,26,8,25.3l-7.5-7.5c-0.7-0.7-0.7-1.8,0-2.5L11.7,4.3c0.2-0.2,2.1-0.2,4.3-0.1
		c0,0.1,0,0.3,0,0.4c0,0.6,0.1,1.4,0.3,2.2c-0.2,0.3-0.4,0.7-0.4,1.2c0,1.2,0.9,2.1,2.1,2.1S20,9.1,20,8c0-0.7-0.4-1.3-0.9-1.7
		c-0.1-0.7-0.2-1.3-0.2-1.6c0-0.1,0-0.1,0-0.2c0.3,0,0.5,0.1,0.8,0.1C21.2,4.7,21.2,4.7,21.4,6.2z M15.4,14.5
		c-0.2-0.5-0.5-1.1-1.1-1.7l0.8-0.8L14.2,11l-0.9,0.9c-1.2-0.8-2.5-0.8-3.3,0.1c-0.9,0.9-0.7,2.1,0,3.5c0.5,1,0.6,1.5,0.2,1.9
		c-0.4,0.4-1,0.2-1.5-0.3c-0.6-0.6-1-1.4-1.2-2L6,15.8c0.2,0.6,0.6,1.4,1.2,2l-0.9,0.9l0.9,0.9l1-1c1.3,0.9,2.6,0.8,3.5-0.1
		c0.9-0.9,1-1.9,0.2-3.4c-0.5-1.1-0.6-1.7-0.3-2c0.3-0.3,0.8-0.3,1.4,0.3c0.7,0.7,0.9,1.4,1,1.7L15.4,14.5z"/>
</g>
</svg>
