<svg xmlns="http://www.w3.org/2000/svg" viewBox="0 0 512 512" xml:space="preserve"><path fill-rule="evenodd" clip-rule="evenodd" d="M275 293.2s9.1.8 14-5.3l9.6-12c4.6-6 15.7-9.8 26.6-3.7 14.4 8.1 33.1 20.9 45.8 32.9 7 5.9 8.7 14.7 3.9 23.9v.2c-4.9 8.7-11.5 16.9-19.9 24.5l-.2.1c-9.4 7.8-20.2 12.4-31.7 8.6l-.2-.3c-20.7-5.9-70.5-31.2-102.2-56.5-51.8-40.9-88.7-108.4-98.9-144.6l-.3-.2c-3.8-11.6.8-22.4 8.6-31.7l.1-.2c7.6-8.3 15.8-15 24.5-19.9h.2c9.2-4.8 18-3.2 23.9 3.9 7.8 8.1 22.5 27.5 32.9 45.8 6.1 10.9 2.3 22-3.7 26.6l-12 9.6c-6.1 4.9-5.3 14-5.3 14s17.8 67.3 84.3 84.3zm104.7-55.8c-3.6 0-6.5-2.9-6.5-6.4-.3-39-12-70.1-34.9-92.4-22.9-22.3-51.8-33.7-85.9-34-3.6 0-6.5-2.9-6.4-6.5 0-3.6 2.9-6.4 6.5-6.4 37.6.3 69.5 12.9 94.9 37.6 25.4 24.8 38.4 59 38.8 101.6 0 3.6-2.9 6.5-6.5 6.5.1 0 0 0 0 0zm-34-13.3h-.1c-3.6-.1-6.4-3.1-6.3-6.6.5-22.1-5.8-40.1-19.3-54.8-13.6-14.7-32-22.7-56.6-24.5-3.6-.3-6.3-3.4-6-6.9.3-3.6 3.4-6.3 6.9-6 27.6 2 49.5 11.7 65 28.7 15.6 17.1 23.3 38.5 22.7 63.8.1 3.5-2.8 6.3-6.3 6.3zM312.4 213c-3.4 0-6.3-2.7-6.5-6.2-1.1-22-11.5-32.7-32.6-33.9-3.6-.2-6.3-3.2-6.1-6.8.2-3.6 3.2-6.3 6.8-6.1 27.9 1.5 43.4 17.5 44.8 46.2.2 3.6-2.6 6.6-6.1 6.8h-.3zm145.5 74c-12.9 104-89 110.6-103 115.1-6 1.9-61.5 15.7-131.2 11.2 0 0-52 62.7-68.2 79-2.5 2.5-5.5 3.6-7.5 3.1-2.8-.7-3.6-4-3.5-8.8l.4-85.7C43.2 372.6 49.1 266.6 50.2 211.1c1.2-55.5 11.6-101 42.6-131.6 55.7-50.5 170.4-43 170.4-43 96.9.4 143.3 29.6 154.1 39.4 35.7 30.6 53.9 103.8 40.6 211.1zM444 49.9C431.3 38.2 379.9.9 265.3.4c0 0-135-8.1-200.9 52.3C27.7 89.4 14.9 143 13.5 209.5c-1.3 66.5-3.1 191.1 117 224.9h.1l-.1 51.5s-.7 20.9 13 25.2c16.6 5.1 26.4-10.7 42.3-27.8 8.7-9.4 20.7-23.2 29.8-33.7 82.2 6.9 145.3-8.9 152.5-11.2 16.6-5.4 110.4-17.4 125.7-142 15.8-128.6-7.6-209.8-49.8-246.5z"/></svg>