<svg xmlns="http://www.w3.org/2000/svg" viewBox="0 0 1289.1 440.6"><defs><style>.cls-1{fill:#60382f;}</style></defs><g id="Шар_2" data-name="Шар 2"><g id="Шар_1-2" data-name="Шар 1"><path class="cls-1" d="M216.7,47.8q-42.75,22.35-71.8,72t-29,100.6c0,24.5,8.5,43.5,25.4,56.8s40.9,20,72.1,20q58.95,0,97.8-34.6t46.4-93.9c3.8,8.1,5.8,15.7,5.8,22.6q0,29.85-37.9,68.9Q266,321.85,203,321.8a153.16,153.16,0,0,1-50.6-8.5q-24.75-8.55-39.5-22.9C96.7,275,88.5,254.2,88.5,227.9c0-23.2,4.9-46.7,14.8-70.7a225,225,0,0,1,41.2-65.1q22.65-24.75,60-47.4Q148.4,29,117.4,29,72.85,29,45.1,56.4c-18.5,18.2-27.8,42-27.8,71.2,0,10.9,1.8,23.3,5.3,37C8.7,155.7,1.8,143.1,1.8,126.7q0-33.6,31.7-69.6Q79.1,5.2,134.5,5.3q36.15,0,107,21.7c3.1-1,4.9-1.6,5.5-1.8L276.5,15A248.49,248.49,0,0,1,357.6,1.7q31.65,0,51.1,10.3C421.6,18.9,428,28,428,39.2q0,20.85-39,31.2c-15.8,4.1-27.3,8.7-34.6,13.7l-6.6-1.8-20.8-5c-25.6-6.2-41.1-10.1-46.7-11.7L226,50.3C225.4,50.1,222.3,49.3,216.7,47.8Zm39.6-17c21.1,6.9,45.2,13.4,72.1,19.3S373.9,59,384.1,59c9.5,0,17.4-1.5,23.7-4.7s9.5-6.9,9.5-11.5c0-8.1-7-15.2-21-21.2s-30.7-9-50.1-9A232.21,232.21,0,0,0,256.3,30.8Z"/><path class="cls-1" d="M202.9,323.6a157.23,157.23,0,0,1-51.2-8.6c-16.6-5.7-30.2-13.6-40.2-23.3C95,276,86.6,254.6,86.6,227.9c0-23.3,5-47.3,15-71.3A227,227,0,0,1,143.1,91c14.4-15.8,33.6-31.2,57-45.6-35.2-9.7-63-14.6-82.7-14.6-29.1,0-53,9-71.1,26.9C28.2,75.4,19,99,19,127.6c0,10.7,1.8,23,5.3,36.6l1.1,4.3-3.7-2.4C7.3,156.9,0,143.6,0,126.7,0,103.9,10.8,80.1,32.1,56,62.7,21.2,97.2,3.5,134.5,3.5c24,0,60,7.3,107,21.6,3.8-1.2,4.7-1.5,5.1-1.6l29.3-10.1A252.16,252.16,0,0,1,357.6,0c21.3,0,38.8,3.5,51.9,10.5,13.5,7.2,20.3,16.8,20.3,28.7,0,14.7-13.6,25.8-40.3,32.9-15.5,4.1-27,8.6-34,13.5l-.7.5-7.4-2L326.6,79c-25.8-6.3-41.2-10.1-46.8-11.8L225.5,51.9c-.5-.1-3.4-.9-8.6-2.3-27.8,14.7-51.5,38.6-70.5,71-19.1,32.7-28.8,66.2-28.8,99.7,0,23.8,8.3,42.5,24.7,55.4,16.5,13.1,40.4,19.7,71,19.7,38.7,0,71.2-11.5,96.7-34.1s40.9-53.9,45.8-92.8l.8-5.9,2.6,5.4c3.9,8.3,5.9,16.2,5.9,23.3,0,20.3-12.9,43.9-38.4,70.1C286.8,302.7,245.2,323.6,202.9,323.6ZM117.4,27.2c20.7,0,50.2,5.3,87.5,15.8l3.9,1.1-3.5,2.1c-24.7,14.9-44.8,30.7-59.7,47.1a223.71,223.71,0,0,0-40.9,64.6C94.9,181.5,90,205,90,227.9c0,25.7,8,46.3,23.8,61.2,9.7,9.4,22.8,17,38.9,22.5a152.73,152.73,0,0,0,50.1,8.4c41.3,0,82.1-20.5,121.3-61,24.8-25.5,37.4-48.3,37.4-67.7a47,47,0,0,0-3.2-16.1c-5.9,36.9-21.4,66.8-46.1,88.7-26.1,23.2-59.4,35-99,35-31.4,0-56.1-6.9-73.2-20.4-17.3-13.6-26-33.2-26-58.2,0-34.1,9.8-68.3,29.3-101.5s43.8-57.7,72.5-72.7l.6-.3.7.2q8.4,2.25,9.3,2.4l54.3,15.3c5.5,1.6,21.2,5.6,46.7,11.7l20.8,5.1,5.9,1.6c7.4-4.9,19-9.5,34.4-13.5,25-6.7,37.7-16.6,37.7-29.5,0-10.6-6-19-18.5-25.6S378.2,3.4,357.5,3.4A247.94,247.94,0,0,0,277,16.6L247.5,26.8c-.7.2-2.5.8-5.6,1.8l-.5.2-.5-.2C194.1,14.3,158.2,7,134.5,7,98.2,7,64.7,24.3,34.7,58.3,14,81.8,3.5,104.8,3.5,126.7c0,14.3,5.3,25.4,16.3,33.8a147.28,147.28,0,0,1-4.3-32.9c0-29.6,9.5-54,28.3-72.5S87.4,27.2,117.4,27.2ZM384.2,60.6c-10.3,0-29.2-3-56.1-8.9s-51.2-12.4-72.3-19.3l-4.5-1.5,4.3-1.8a235.76,235.76,0,0,1,90.6-18.3c19.5,0,36.6,3.1,50.8,9.1,14.7,6.3,22.1,13.9,22.1,22.8,0,5.3-3.5,9.7-10.5,13.1C402.1,59,393.8,60.6,384.2,60.6Zm-122.8-30c19.9,6.3,42.5,12.3,67.4,17.7,26.7,5.9,45.3,8.8,55.3,8.8,9.1,0,16.9-1.5,22.9-4.5,5.7-2.8,8.5-6.1,8.5-9.9,0-7.3-6.7-13.9-20-19.5-13.7-5.9-30.4-8.8-49.4-8.8A230.06,230.06,0,0,0,261.4,30.6Z"/><path class="cls-1" d="M508.9,287.1l4,5.8c-15.5,11.7-36.7,20.8-63.6,27.5q1.05-22.35,26.4-77.1c-19.1,22.4-38.7,41.1-58.8,55.8s-36.2,22.2-48,22.2c-10.3,0-15.5-6.6-15.5-19.7q0-33.45,29.9-72.3t75.1-63.9q51-28.65,101.5-28.6c4.7,0,7.1,1.8,7.1,5.3q0,4.5-6.6,16.8a165.27,165.27,0,0,0-29.2-2.7q-67.65,0-116.3,52.5-35.85,38.55-35.9,76.4c0,11.8,4.4,17.7,13.1,17.7,7.4,0,18-6.4,31.9-19.2a230.59,230.59,0,0,0,37.2-44.4A219.49,219.49,0,0,0,492,166.5c6.3,3.8,9.5,10.9,9.5,21.3q0,21.45-21.7,49.4c7.1-.6,15.9-2.7,26.4-6.2l-1.8,3.8c-14,31.5-21,49.8-21,55.2q0,6.45,6,6C492.9,295.6,499.4,292.7,508.9,287.1Z"/><path class="cls-1" d="M368.9,322.9c-7.9,0-17.3-3.7-17.3-21.5,0-22.6,10.2-47.3,30.3-73.4s45.4-47.6,75.6-64.4c34.1-19.1,68.5-28.8,102.3-28.8,7.7,0,8.8,4.4,8.8,7.1,0,3.3-2.2,9.1-6.9,17.7l-.6,1.1-1.2-.2a171.44,171.44,0,0,0-28.9-2.6c-44.3,0-83,17.5-115,51.9-23.5,25.2-35.4,50.6-35.4,75.2,0,14.3,6.5,16,11.3,16,6.9,0,17.2-6.3,30.7-18.7a227.85,227.85,0,0,0,36.9-44.1c14.9-23,25.2-47.3,30.6-72.1l.5-2.4,2.1,1.3c6.9,4.2,10.4,11.8,10.4,22.8,0,13.8-6.6,29.7-19.6,47.2a130.71,130.71,0,0,0,21.9-5.6l3.9-1.3-3.5,7.5c-17.3,38.7-20.9,50.9-20.9,54.4a5,5,0,0,0,1,3.5c.6.6,1.6.8,3.1.7,2.3-.2,7.5-1.8,19-8.6l1.4-.8,5.9,8.5-1.3,1c-15.6,11.8-37.2,21.1-64.2,27.8l-2.3.6.1-2.3c.7-13.5,7.9-36,21.6-66.9-16.6,18.5-33.9,34.4-51.3,47.1C397.2,315.6,381.2,322.9,368.9,322.9ZM559.8,138.4c-33.2,0-67.1,9.5-100.6,28.4-29.8,16.5-54.9,37.8-74.6,63.4s-29.5,49.5-29.5,71.3c0,16.1,7.9,18,13.8,18,11.4,0,27.2-7.3,46.9-21.8,20-14.6,39.6-33.3,58.5-55.5l2.4-2.9-.9.1,2.4-3.1c14.2-18.2,21.3-34.5,21.3-48.3,0-8.6-2.2-14.6-6.6-18.3-5.6,24.3-15.9,48.1-30.5,70.7a238.31,238.31,0,0,1-37.5,44.8c-14.4,13.2-25.2,19.6-33.1,19.6-6.8,0-14.8-3.4-14.8-19.5,0-25.6,12.2-51.7,36.4-77.6,32.7-35.2,72.2-53.1,117.6-53.1a164.24,164.24,0,0,1,28.3,2.5c4.8-9.1,5.8-13.1,5.8-14.9C565.2,140.8,565.2,138.4,559.8,138.4ZM479.5,239l-2.3,5c-15.8,34.2-24.5,59.1-26,74.1,24.7-6.3,44.6-14.9,59.3-25.6l-2.1-3c-9,5.3-15.3,8-19.1,8.3a7.49,7.49,0,0,1-5.7-1.6,8.09,8.09,0,0,1-2.2-6.1c0-5.6,6.9-23.9,21.2-55.9l.1-.1c-8.9,2.8-16.6,4.5-22.9,5Z"/><path class="cls-1" d="M654.2,136.7l-2.9,6.6H620.1l-1.8,3.8q-4.2,8.85-22.8,51.8-7.5,17.55-21.3,48.3c-10.8,23.9-16.2,39.1-16.2,45.4s3.2,9.5,9.7,9.5c7.8,0,18.5-4.6,32.1-13.7l3.5,5.8a133.7,133.7,0,0,1-30.4,17.3c-11.4,4.7-20.8,7.1-28.1,7.1-11.1,0-16.6-4.4-16.6-13.1q0-9.3,18.6-52.3l23-52.5q19.2-44.55,22.4-52.3l2.2-5.1h-29l3.1-6.6h2.9c12.7,0,21.2-2,25.6-6s10.3-15.2,17.8-33.7c2.2.1,3.7.2,4.4.2a82.86,82.86,0,0,0,21-2.7c-1.6,4.3-4.5,11.3-8.6,21L625,131.4l-2.2,5.1h31.4v.2Z"/><path class="cls-1" d="M545,320.3c-15.2,0-18.4-8.1-18.4-14.8,0-6.5,6.1-23.8,18.8-53l23-52.5c12.8-29.5,20.3-47.1,22.4-52.2l1.2-2.7H562.9l4.7-10.1h4c12.2,0,20.4-1.9,24.4-5.5,4.1-3.8,10-14.9,17.4-33l.5-1.2,1.3.1c2.2.1,3.6.2,4.3.2A84.89,84.89,0,0,0,640.1,93l3.3-.8-1.2,3.1c-1.6,4.3-4.5,11.4-8.7,21.1L625.7,135h31.2l-4.4,10.1H621.2l-1.3,2.8c-2.8,5.9-10.4,23.3-22.8,51.8-5,11.6-12.2,27.9-21.3,48.3-10.6,23.6-16,38.6-16,44.7,0,5.4,2.5,7.8,8,7.8,7.4,0,17.9-4.5,31.2-13.4l1.5-1,5.3,8.7-1.3,1a136.42,136.42,0,0,1-30.7,17.5C562.3,317.8,552.6,320.3,545,320.3Zm23.3-178.7h28.9l-3.3,7.5c-2.1,5.1-9.6,22.7-22.4,52.3l-23,52.5c-12.2,28.3-18.5,45.6-18.5,51.6,0,4.9,1.5,11.3,14.9,11.3,7.1,0,16.4-2.3,27.5-7a132.5,132.5,0,0,0,28.7-16.1l-1.8-2.9c-13.3,8.8-23.6,13-31.6,13-7.4,0-11.5-4-11.5-11.3,0-6.7,5.3-21.8,16.3-46.1,9.1-20.4,16.3-36.7,21.3-48.3,12.4-28.5,20-46,22.8-51.9l2.2-4.8H650l1.4-3.1H620.2l3.3-7.5,6.6-15.9c3.2-7.6,5.7-13.6,7.4-17.9a85.88,85.88,0,0,1-18.2,1.9c-.6,0-1.7,0-3.3-.1-7.5,18.2-13.3,29-17.8,33.1-4.7,4.3-13.5,6.4-26.8,6.4h-1.8Z"/><path class="cls-1" d="M769,287.1l4,5.8c-15.5,11.7-36.7,20.8-63.6,27.5q1.05-22.35,26.4-77.1c-19.1,22.4-38.7,41.1-58.8,55.8s-36.2,22.2-48,22.2c-10.3,0-15.5-6.6-15.5-19.7q0-33.45,29.9-72.3t75.1-63.9q51-28.65,101.5-28.6c4.7,0,7.1,1.8,7.1,5.3q0,4.5-6.6,16.8a165.27,165.27,0,0,0-29.2-2.7q-67.65,0-116.3,52.5-35.85,38.55-35.9,76.4c0,11.8,4.4,17.7,13.1,17.7,7.4,0,18-6.4,31.9-19.2a230.59,230.59,0,0,0,37.2-44.4,219.49,219.49,0,0,0,30.8-72.7c6.4,3.8,9.5,10.9,9.5,21.3q0,21.45-21.7,49.4c7.1-.6,15.9-2.7,26.4-6.2l-1.8,3.8c-14,31.5-21,49.8-21,55.2q0,6.45,6,6C753,295.6,759.5,292.7,769,287.1Z"/><path class="cls-1" d="M629,322.9c-7.9,0-17.3-3.7-17.3-21.5,0-22.6,10.2-47.3,30.3-73.4s45.4-47.6,75.6-64.4c34.1-19.1,68.5-28.8,102.3-28.8,7.7,0,8.8,4.4,8.8,7.1,0,3.3-2.2,9.1-6.9,17.7l-.6,1.1-1.2-.2a171.44,171.44,0,0,0-28.9-2.6c-44.3,0-83,17.5-115,51.9-23.5,25.2-35.4,50.6-35.4,75.2,0,14.3,6.5,16,11.3,16,6.9,0,17.2-6.3,30.7-18.7a227.85,227.85,0,0,0,36.9-44.1c14.9-23,25.2-47.3,30.6-72.1l.5-2.4,2.1,1.3c6.9,4.2,10.4,11.8,10.4,22.8,0,13.8-6.6,29.7-19.6,47.2a130.71,130.71,0,0,0,21.9-5.6l3.9-1.3-3.5,7.5C748.6,274.3,745,286.5,745,290a5,5,0,0,0,1,3.5c.6.6,1.6.8,3.1.7,2.3-.2,7.5-1.8,19-8.6l1.4-.8,5.9,8.5-1.3,1c-15.6,11.8-37.2,21.1-64.2,27.8l-2.3.6.1-2.3c.7-13.5,7.9-36,21.6-66.9-16.6,18.5-33.9,34.4-51.3,47.1C657.3,315.6,641.3,322.9,629,322.9ZM819.9,138.4c-33.2,0-67.1,9.5-100.6,28.4-29.8,16.5-54.9,37.8-74.6,63.4s-29.5,49.5-29.5,71.3c0,16.1,7.9,18,13.8,18,11.4,0,27.2-7.3,46.9-21.8,20-14.6,39.6-33.3,58.5-55.5l2.4-2.9-.9.1,2.4-3.1c14.2-18.2,21.3-34.5,21.3-48.3,0-8.6-2.2-14.6-6.6-18.3-5.6,24.3-15.9,48.1-30.5,70.7A238.31,238.31,0,0,1,685,285.2c-14.4,13.2-25.2,19.6-33.1,19.6-6.8,0-14.8-3.4-14.8-19.5,0-25.6,12.2-51.7,36.4-77.6,32.7-35.2,72.2-53.1,117.6-53.1a164.24,164.24,0,0,1,28.3,2.5c4.8-9.1,5.8-13.1,5.8-14.9C825.3,140.8,825.3,138.4,819.9,138.4ZM739.6,239l-2.3,5c-15.8,34.2-24.5,59.1-26,74.1,24.7-6.3,44.6-14.9,59.3-25.6l-2.1-3c-9,5.3-15.3,8-19.1,8.3a7.49,7.49,0,0,1-5.7-1.6,8.09,8.09,0,0,1-2.2-6.1c0-5.6,6.9-23.9,21.2-55.9l.1-.1c-8.9,2.8-16.6,4.5-22.9,5Z"/><path class="cls-1" d="M1150.7,107.6h135.8q-34.05,159.3-127,248.5-85.05,81.45-187.2,81.5-70.95,0-121-43-54.45-46.8-54.5-124.5,0-56.55,33.2-91.3T917.3,144a121.7,121.7,0,0,1,69,20.7q31.2,20.7,59.7,65l42.8,65.6c3.4,5.5,5.5,8.9,6.4,10.4,8.9,13.9,16.2,20.8,22.2,20.8,4.4,0,11.1-2.3,19.9-6.9l3.5,7.3-4,1.6-18.8,8.2c-4,1.8-11,5.1-21,10l-4.9,2.2-2.2-3.1c-9.5-13.7-20-29.8-31.7-48.3l-18.6-29.7q-37.65-60.3-64.7-82.6-34.35-28.65-72-28.6-40,0-65.3,26.5c-16.8,17.6-25.1,40.6-25.1,68.8q0,57.6,37.7,104.3,24.15,30.3,61.4,46.9t81.1,16.5q68.85,0,125-40.8T1210.8,261a553.88,553.88,0,0,0,31.6-80.9q12.75-41.85,12.7-64.7h-41c7.5,6.8,11.3,15.5,11.3,26.1q0,29.85-31.7,59.4-44.25,41.25-87.7,41.2-32.1,0-52-19.8c-13.2-13.2-19.8-30.5-19.8-51.7a142.24,142.24,0,0,1,14.3-61.8,155,155,0,0,1,39.8-51.6,213,213,0,0,1,62.8-36.6q35-13,69.7-13.1A216.09,216.09,0,0,1,1243,8.8l-15,52.8h-8.2l1.1-4.9a63.55,63.55,0,0,0,1.5-12.4c0-11.2-11.5-16.8-34.6-16.8q-36.3,0-65.6,16.2c-18.8,10.3-33.8,25.9-45.2,46.7a138,138,0,0,0-17.1,67.3q0,30.6,17.2,48.8c11.4,12.2,26.8,18.3,46,18.3q31.65,0,55.2-22.4t23.5-52.7q0-34-45.2-34.1h-6l.1-8Z"/><path class="cls-1" d="M972.4,439.4c-47.5,0-88.6-14.6-122.1-43.4-36.6-31.4-55.1-73.7-55.1-125.8,0-37.9,11.3-69.1,33.7-92.5s52.2-35.3,88.6-35.3a124.62,124.62,0,0,1,70,21c20.9,13.9,41.1,35.9,60.2,65.5l42.8,65.6c3.4,5.5,5.6,9,6.5,10.5,10.5,16.5,17.1,20,20.7,20,4.1,0,10.6-2.2,19.1-6.7l1.6-.8,5.2,10.6-5.8,2.2-18.8,8.2q-6,2.7-21,9.9l-6.2,2.8-3.1-4.3c-9.5-13.8-20.1-30-31.7-48.4l-18.6-29.7c-24.9-39.8-46.5-67.5-64.3-82.2-22.5-18.7-46.3-28.2-70.9-28.2-26.1,0-47.6,8.7-64,25.9s-24.7,40-24.7,67.6c0,37.8,12.5,72.5,37.3,103.2,15.8,19.9,36.3,35.5,60.7,46.4s51.5,16.3,80.4,16.3c45.3,0,87-13.6,123.9-40.4s68.1-66.3,92.5-117.2a565.93,565.93,0,0,0,31.5-80.6c8.1-26.6,12.3-47.6,12.6-62.4h-35c5.9,6.6,8.9,14.8,8.9,24.4,0,20.3-10.8,40.8-32.2,60.6-29.7,27.7-59.7,41.7-88.9,41.7-21.8,0-39.7-6.8-53.2-20.3s-20.3-31.3-20.3-53a144.48,144.48,0,0,1,14.5-62.6,157.36,157.36,0,0,1,40.2-52.2,217.73,217.73,0,0,1,63.3-36.9c23.4-8.7,47-13.2,70.3-13.2A217.86,217.86,0,0,1,1243.3,7l2.1.2L1229.6,63h-11.7l1.6-7a60,60,0,0,0,1.5-12c0-10-11-15.1-32.8-15.1-23.8,0-45.6,5.4-64.7,16-18.4,10.1-33.4,25.6-44.5,46a136.87,136.87,0,0,0-16.8,66.5c0,19.8,5.6,35.9,16.7,47.6s26.1,17.7,44.7,17.7c20.6,0,38.7-7.4,54-21.9s22.9-31.8,22.9-51.5c0-21.8-14.2-32.4-43.4-32.4h-7.7V105.4h139.7l-.5,2.1c-22.7,106-65.6,190-127.4,249.4C1104,411.9,1040.6,439.4,972.4,439.4Zm-55-293.5c-35.4,0-64.3,11.5-86,34.2s-32.7,53-32.7,90.1c0,51.1,18.1,92.5,53.9,123.2,32.9,28.2,73.2,42.5,119.8,42.5,67.3,0,129.9-27.3,186-81,60.9-58.6,103.3-141.2,126-245.5H1152.5v4.5h4.2c31.2,0,46.9,12.1,46.9,35.9,0,20.6-8.1,38.8-24,54s-34.9,22.9-56.4,22.9c-19.6,0-35.5-6.3-47.2-18.8s-17.6-29.3-17.6-50a140.23,140.23,0,0,1,17.3-68.2c11.5-21,26.9-37,45.9-47.4,19.7-10.9,42-16.4,66.4-16.4,24.1,0,36.3,6.3,36.3,18.6a60.88,60.88,0,0,1-1.6,12.8l-.6,2.8h4.7l13.9-49.2c-7.6-.7-14.3-1.1-19.9-1.1-22.9,0-46.1,4.4-69.1,13a210.91,210.91,0,0,0-62.3,36.3,153.91,153.91,0,0,0-39.3,51,140.33,140.33,0,0,0-14.1,61c0,20.7,6.5,37.7,19.3,50.5s29.9,19.3,50.7,19.3c28.4,0,57.5-13.7,86.6-40.7,20.7-19.2,31.1-38.8,31.1-58.1,0-10.2-3.5-18.3-10.7-24.8l-3.4-3h47.3V116c0,15.3-4.3,37.2-12.8,65.2a556.71,556.71,0,0,1-31.7,81.1c-24.7,51.4-56.2,91.3-93.6,118.5s-79.9,41.1-126,41.1c-29.4,0-56.9-5.6-81.8-16.7s-45.8-27-62-47.4c-25.2-31.3-38-66.8-38-105.4,0-28.5,8.6-52.1,25.6-70s39.4-27,66.5-27c25.4,0,50,9.8,73.1,29,18.1,15,40,42.9,65.1,83l18.6,29.7c11.6,18.3,22.2,34.5,31.6,48.2l1.4,1.9,3.6-1.6c10-4.8,17.1-8.2,21.1-10l18.8-8.2,2.3-.9-1.9-4c-8.4,4.2-14.7,6.3-19.1,6.3-6.6,0-14.3-7.1-23.6-21.6-.9-1.5-3-5-6.4-10.4L1045,231.3c-18.8-29.2-38.8-50.9-59.2-64.5A119.63,119.63,0,0,0,917.4,145.9Z"/><path d="M159,213.8a76.81,76.81,0,0,0,35.7,37l37-37Z"/><path d="M157.2,155.6a74.06,74.06,0,0,0-4.8,25.5,76.92,76.92,0,0,0,3.9,25.5h51.9Z"/><path d="M197.1,112.9a76,76,0,0,0-36.9,35.6l37,37Z"/><path d="M201.7,253.8a73.94,73.94,0,0,0,25.4,4.8,78.15,78.15,0,0,0,25.7-4v-52Z"/><path d="M259.9,189.5h0l.1,62.2a76.64,76.64,0,0,0,36.8-35.6L260,179.3l-.1,10.2Z"/><path d="M255.4,111.1a76.13,76.13,0,0,0-51-1v52Z"/><path d="M297.9,151a76,76,0,0,0-35.5-36.8L225.6,151Z"/><path d="M299.8,209.1a75.9,75.9,0,0,0,4.8-25.4,74.09,74.09,0,0,0-4-25.5H248.8Z"/><path d="M812.75,439.4H803l-11.7-19.6a54.9,54.9,0,0,0-3.1-4.7,15.15,15.15,0,0,0-3.1-3.1,12.39,12.39,0,0,0-3.4-1.8,13.09,13.09,0,0,0-4.1-.6h-6.7v29.8h-8.2v-70h20.9a32.39,32.39,0,0,1,8.5,1.1,18.62,18.62,0,0,1,6.7,3.5,17.13,17.13,0,0,1,4.5,5.8,19.05,19.05,0,0,1,1.6,8.2,20.46,20.46,0,0,1-1.1,6.7,18.1,18.1,0,0,1-3.1,5.4,19.45,19.45,0,0,1-4.9,4.1,24.52,24.52,0,0,1-6.4,2.6v.2a13.28,13.28,0,0,1,3.1,1.8,18.78,18.78,0,0,1,2.5,2.4,19.2,19.2,0,0,1,2.3,3.1c.8,1.2,1.6,2.5,2.6,4Zm-42-62.6v25.4h11.1a17.47,17.47,0,0,0,5.7-.9,12.88,12.88,0,0,0,4.5-2.7,12.46,12.46,0,0,0,3-4.2,14.71,14.71,0,0,0,1.1-5.6,11.17,11.17,0,0,0-3.6-8.8c-2.4-2.1-5.9-3.1-10.5-3.1l-11.3-.1Z"/><path d="M63,412.9v26.5H54.8v-70H74c7.5,0,13.3,1.8,17.4,5.5s6.2,8.8,6.2,15.4a21.16,21.16,0,0,1-6.9,16.3c-4.6,4.2-10.8,6.3-18.5,6.3Zm0-36.1v28.7h8.6c5.7,0,10-1.3,13-3.9s4.5-6.2,4.5-11c0-9.2-5.5-13.9-16.4-13.9l-9.7.1Z"/><path d="M163.4,439.4h-8.2V407.5H119v31.9h-8.2v-70H119v30.7h36.2V369.4h8.2Z"/><path d="M298.6,376.8H278.4v62.6h-8.2V376.8H250v-7.4h48.6v7.4Z"/><path d="M337.8,440.6c-9.9,0-17.9-3.3-23.9-9.8s-9-15.1-9-25.5c0-11.3,3-20.2,9.1-27s14.4-10.1,24.9-10.1c9.7,0,17.5,3.3,23.4,9.8s8.9,15,8.9,25.5c0,11.4-3,20.5-9.1,27.1S347.9,440.6,337.8,440.6Zm.6-65a22.54,22.54,0,0,0-17.9,8c-4.6,5.3-6.9,12.3-6.9,20.9s2.2,15.6,6.7,20.8a21.79,21.79,0,0,0,17.5,7.9c7.7,0,13.7-2.5,18.2-7.5s6.6-12,6.6-21c0-9.2-2.1-16.4-6.4-21.4C351.8,378.1,345.9,375.6,338.4,375.6Z"/><path d="M437.3,434.6a46.32,46.32,0,0,1-23.4,6c-10,0-18.1-3.2-24.2-9.7s-9.3-15-9.3-25.6c0-10.8,3.4-19.7,10.3-26.7s15.5-10.4,26-10.4c7.6,0,14,1.2,19.2,3.7V381a36.84,36.84,0,0,0-20.1-5.4c-7.8,0-14.3,2.7-19.3,8.1s-7.5,12.4-7.5,21c0,8.9,2.3,15.8,7,20.9s11,7.6,18.9,7.6a28.94,28.94,0,0,0,14.2-3.3V410.3H413.8v-7.4h23.5v31.7Z"/><path d="M503.7,439.4H494l-11.7-19.6a54.9,54.9,0,0,0-3.1-4.7,15.15,15.15,0,0,0-3.1-3.1,12.39,12.39,0,0,0-3.4-1.8,13.09,13.09,0,0,0-4.1-.6h-6.7v29.8h-8.2v-70h20.9a32.39,32.39,0,0,1,8.5,1.1,18.62,18.62,0,0,1,6.7,3.5,17.13,17.13,0,0,1,4.5,5.8,19.05,19.05,0,0,1,1.6,8.2,20.46,20.46,0,0,1-1.1,6.7,18.1,18.1,0,0,1-3.1,5.4,19.45,19.45,0,0,1-4.9,4.1,24.52,24.52,0,0,1-6.4,2.6v.2a13.28,13.28,0,0,1,3.1,1.8,18.78,18.78,0,0,1,2.5,2.4,19.2,19.2,0,0,1,2.3,3.1c.8,1.2,1.6,2.5,2.6,4Zm-41.9-62.6v25.4h11.1a17.47,17.47,0,0,0,5.7-.9,12.88,12.88,0,0,0,4.5-2.7,12.46,12.46,0,0,0,3-4.2,14.71,14.71,0,0,0,1.1-5.6,11.17,11.17,0,0,0-3.6-8.8c-2.4-2.1-5.9-3.1-10.5-3.1l-11.3-.1Z"/><path d="M567.6,439.4h-9.1l-7.4-19.6H521.4l-7,19.6h-9.1l26.9-70h8.5Zm-19.2-27-11-29.8a27.52,27.52,0,0,1-1.1-4.7h-.2a27.44,27.44,0,0,1-1.1,4.7l-10.9,29.8Z"/><path d="M586.1,412.9v26.5h-8.2v-70h19.2c7.5,0,13.3,1.8,17.4,5.5s6.2,8.8,6.2,15.4a21.16,21.16,0,0,1-6.9,16.3c-4.6,4.2-10.8,6.3-18.5,6.3Zm0-36.1v28.7h8.6c5.7,0,10-1.3,13-3.9s4.5-6.2,4.5-11c0-9.2-5.5-13.9-16.4-13.9l-9.7.1Z"/><path d="M686.5,439.4h-8.2V407.5H642.1v31.9h-8.2v-70h8.2v30.7h36.2V369.4h8.2Z"/><path d="M742,439.4H704.9v-70h35.5v7.4H713.1v23.3h25.3v7.4H713.1V432H742v7.4Z"/><path d="M207.9,440.6c-9.9,0-17.9-3.3-23.9-9.8s-9-15.1-9-25.5c0-11.3,3-20.2,9.1-27s14.4-10.1,24.9-10.1c9.7,0,17.5,3.3,23.4,9.8s8.9,15,8.9,25.5c0,11.4-3,20.5-9.1,27.1S218,440.6,207.9,440.6Zm.6-65a22.54,22.54,0,0,0-17.9,8c-4.6,5.3-6.9,12.3-6.9,20.9s2.2,15.6,6.7,20.8a21.79,21.79,0,0,0,17.5,7.9c7.7,0,13.7-2.5,18.2-7.5s6.6-12,6.6-21c0-9.2-2.1-16.4-6.4-21.4C221.9,378.1,216,375.6,208.5,375.6Z"/></g></g></svg>