<?xml version="1.0" encoding="UTF-8"?>
<svg version="1.1" xmlns="http://www.w3.org/2000/svg" xmlns:xlink="http://www.w3.org/1999/xlink">
<defs>

</defs>
<symbol id="i-analytics" xmlns="http://www.w3.org/2000/svg" viewBox="0 0 2469.7 2469.8"><path opacity=".8" d="M1234.5 745.5l-216.7-216.9c1.4 1.4-2.8-2.8-4.2-4.3 0 0-1.5-1.5-3.2-3.4-5.1-5.4-9.8-10.9-9.8-10.9-4.1-4.8-7.4-8.9-9.8-11.9 0 0-4.9-6.2-9.4-12.7-19-27.2-31.7-57.6-31.7-57.6-2.7-6.6-6.3-15.7-9.8-26.8-2.7-8.7-7.3-24.9-10.5-45.3-1.1-7.2-1.8-13.3-2.2-17.5-.5-5.7-1.2-14.4-1.4-24.9-.2-12 .2-31.5 4-54.7 1.3-8.1 2.7-14.7 3.7-18.9 1.1-4.7 3.4-14.3 7.1-25.8 7.2-22.4 15.7-39.7 19.6-47.3 8.4-16.3 17.1-29.4 24-39 11.1-15.3 22.2-27.7 32.1-37.4-308.6 308.8-617.2 617.4-925.8 926-120.6 120.5-120.7 315.8-.2 436.4l.2.2 925.8 925.8 428.3-430.3L745 1235.1c163.2-163.2 326.4-326.4 489.5-489.6z"/><g opacity=".6"><path d="M1449.8 2376c36.4-36.6 55.2-73.3 64.7-96.3 38-91.1 19.1-176 7.6-211.1-11.2-34-29.3-63.7-30.5-65.6-6-9.8-15.6-25.1-31.6-42.4-18-19.5-43.5-40.8-40.7-38.2 0 0-73.5-75-186.3-189.9 236.4-238.8 472.7-477.6 709.1-716.4 145.6 145.5 291.1 291.1 436.7 436.6l-929 923.3z"/><path d="M2378.7 1016.2L1452.9 90.4c-120.6-120.6-316.1-120.6-436.7 0-120.6 120.6-120.6 316.1 0 436.6l926.3 925.8c120.6 120.6 316.1 120.6 436.6 0 120.6-120.6 120.6-316.1 0-436.6h-.4z"/></g><circle cx="1231.2" cy="2163.9" r="306"/></symbol>
<symbol id="i-diaphragm" xmlns="http://www.w3.org/2000/svg" viewBox="0 0 512 512"><g data-name="Шар 2"><g data-name="Шар 1"><path d="M256 512C114.79 512 0 397.21 0 256S114.79 0 256 0s256 114.79 256 256-114.79 256-256 256zm0-492.34c-130.25 0-236.34 106-236.34 236.34S125.75 492.34 256 492.34 492.34 386.36 492.34 256 386.25 19.66 256 19.66z"/><path d="M65.33 340.89a209.94 209.94 0 0097.9 101.48L264.7 340.89zM60.21 181.15a209.7 209.7 0 00-2.56 140h142.54zM170 64.1a210.16 210.16 0 00-101.39 97.69l101.58 101.58zM182.58 450.76A207.05 207.05 0 00252.31 464a211.07 211.07 0 0070.45-10.85V310.48zM342.43 274.43h.2v170.91a210.17 210.17 0 00101.07-97.79L342.53 246.37l-.1 28.06zM329.83 59a209.22 209.22 0 00-140.08-2.66l.1 142.64zM446.67 168.55a209.83 209.83 0 00-97.38-101.07L248.22 168.55zM452 328.09a209.2 209.2 0 0013.21-69.63 206.85 206.85 0 00-10.85-70.15H312.12z"/></g></g></symbol>
</svg>