<?xml version="1.0" encoding="UTF-8"?>
<svg version="1.1" xmlns="http://www.w3.org/2000/svg" xmlns:xlink="http://www.w3.org/1999/xlink">
<defs>

</defs>
<symbol id="i-arrow-left" xmlns="http://www.w3.org/2000/svg" viewBox="0 0 512 512"><path d="M400.7 478.5L367.2 512l-256-256 256-256 33.5 33.5-222.5 222.6 222.5 222.4z"/></symbol>
<symbol id="i-arrow-right" xmlns="http://www.w3.org/2000/svg" viewBox="0 0 512 512"><path d="M111.2 33.5L144.7 0l256 256-256 256-33.5-33.5 222.5-222.6L111.2 33.5z"/></symbol>
<symbol id="i-checked" xmlns="http://www.w3.org/2000/svg" viewBox="0 0 408.576 408.576"><path d="M204.288 0C91.648 0 0 91.648 0 204.288s91.648 204.288 204.288 204.288 204.288-91.648 204.288-204.288S316.928 0 204.288 0zm114.176 150.528l-130.56 129.536c-7.68 7.68-19.968 8.192-28.16.512L90.624 217.6c-8.192-7.68-8.704-20.48-1.536-28.672 7.68-8.192 20.48-8.704 28.672-1.024l54.784 50.176L289.28 121.344c8.192-8.192 20.992-8.192 29.184 0s8.192 20.992 0 29.184z"/></symbol>
<symbol id="i-diaphragm" xmlns="http://www.w3.org/2000/svg" viewBox="0 0 512 512"><g data-name="Шар 2"><g data-name="Шар 1"><path d="M256 512C114.79 512 0 397.21 0 256S114.79 0 256 0s256 114.79 256 256-114.79 256-256 256zm0-492.34c-130.25 0-236.34 106-236.34 236.34S125.75 492.34 256 492.34 492.34 386.36 492.34 256 386.25 19.66 256 19.66z"/><path d="M65.33 340.89a209.94 209.94 0 0097.9 101.48L264.7 340.89zM60.21 181.15a209.7 209.7 0 00-2.56 140h142.54zM170 64.1a210.16 210.16 0 00-101.39 97.69l101.58 101.58zM182.58 450.76A207.05 207.05 0 00252.31 464a211.07 211.07 0 0070.45-10.85V310.48zM342.43 274.43h.2v170.91a210.17 210.17 0 00101.07-97.79L342.53 246.37l-.1 28.06zM329.83 59a209.22 209.22 0 00-140.08-2.66l.1 142.64zM446.67 168.55a209.83 209.83 0 00-97.38-101.07L248.22 168.55zM452 328.09a209.2 209.2 0 0013.21-69.63 206.85 206.85 0 00-10.85-70.15H312.12z"/></g></g></symbol>
<symbol id="i-info" xmlns="http://www.w3.org/2000/svg" viewBox="0 0 512 512"><path d="M256 480.5C132.2 480.5 31.5 379.8 31.5 256S132.2 31.5 256 31.5 480.5 132.2 480.5 256 379.8 480.5 256 480.5M256 0C114.8 0 0 114.8 0 256s114.8 256 256 256 256-114.8 256-256S397.2 0 256 0"/><path d="M260.1 127.6c14.5 0 26.3 11.8 26.3 26.3s-11.8 26.3-26.3 26.3-26.3-11.8-26.3-26.3 11.7-26.3 26.3-26.3m-7 95.6c-8.7 0-15.8 7.1-15.8 15.8v133.9c0 8.7 7.1 15.8 15.8 15.8s15.8-7.1 15.8-15.8V239c0-8.7-7.1-15.8-15.8-15.8"/></symbol>
<symbol id="i-instagram" xmlns="http://www.w3.org/2000/svg" viewBox="0 0 512 512"><path d="M255.9 124.1c-72.3 0-132.1 58.8-132.1 132.1s58.8 132.1 132.1 132.1S388 328.5 388 256.2s-59.9-132.1-132.1-132.1zm0 216.8c-46.5 0-84.6-38.2-84.6-84.6s38.2-84.6 84.6-84.6 84.6 38.2 84.6 84.6-38.2 84.6-84.6 84.6z"/><circle cx="393.1" cy="121" r="29.9"/><path d="M470.6 43.6c-26.8-27.9-65-42.3-108.4-42.3H149.5C59.7 1.2-.2 61.1-.2 150.9v211.6c0 44.4 14.5 82.6 43.4 110.5 27.9 26.8 65 40.3 107.4 40.3h210.6c44.4 0 81.5-14.5 108.4-40.3 27.9-26.8 42.3-65 42.3-109.4V150.9c0-43.3-14.5-80.5-41.3-107.3zm-4.2 320c0 32-11.4 57.8-29.9 75.4-18.6 17.5-44.4 26.8-75.4 26.8H150.6c-31 0-56.8-9.3-75.4-26.8-18.6-18.6-27.9-44.4-27.9-76.4V150.9c0-31 9.3-56.8 27.9-75.4 17.5-17.5 44.4-26.8 75.4-26.8h212.6c31 0 56.8 9.3 75.4 27.9 17.5 18.6 27.9 44.4 27.9 74.3v212.7z"/></symbol>
<symbol id="i-phone" viewBox="0 0 18 18"><path fill-rule="evenodd" clip-rule="evenodd" d="M2.633 3.217c.002 0-.04.044-.093.095-.201.196-.619.604-.623 1.456-.007 1.193.778 3.407 4.553 7.182 3.759 3.756 5.97 4.55 7.165 4.55h.017c.853-.005 1.26-.423 1.456-.624.06-.061.108-.106.142-.135.83-.835 1.255-1.456 1.251-1.855-.006-.406-.511-.887-1.21-1.552a39.316 39.316 0 01-.72-.697c-.66-.659-.988-.546-1.708-.293-.996.349-2.363.824-4.486-1.3-2.127-2.125-1.65-3.49-1.302-4.486.251-.72.366-1.048-.295-1.71-.26-.258-.492-.503-.706-.728-.661-.695-1.138-1.198-1.542-1.204h-.007c-.399 0-1.019.427-1.896 1.305l.004-.004zM13.635 17.75c-2.076 0-4.784-1.654-8.048-4.916C2.31 9.558.655 6.842.667 4.76c.008-1.375.728-2.079 1-2.343.013-.017.062-.065.078-.082C2.94 1.141 3.746.657 4.548.666c.93.013 1.593.71 2.432 1.592.207.218.432.456.683.706 1.217 1.217.87 2.209.592 3.006-.304.869-.566 1.619 1.005 3.19 1.574 1.572 2.324 1.31 3.19 1.004.797-.278 1.787-.627 3.005.59.247.247.481.47.697.675.887.842 1.587 1.508 1.598 2.442.01.795-.473 1.606-1.666 2.8l-.529-.358.447.437c-.264.27-.967.992-2.343 1h-.024z"/></symbol>
<symbol id="i-price" xmlns="http://www.w3.org/2000/svg" viewBox="0 0 25.8 25.8"><path d="M25.8 5c0 3.9-1.7 6.8-1.8 6.9-.1.2-.4.4-.7.4-.1 0-.3 0-.4-.1-.4-.2-.5-.7-.3-1.1 0 0 1.6-2.6 1.6-6.1 0-2-1.3-3.4-3.1-3.4C19.4 1.6 18 3 18 4.7c0 .7.3 2.6.5 3.2.1.4-.2.8-.6.9-.4.1-.8-.2-.9-.6-.1-.3-.5-2.5-.5-3.5 0-2.5 2.1-4.6 4.6-4.6 2.8-.1 4.7 2 4.7 4.9zm-4.4 1.2c.3 2.5.7 7.5.2 8L10.5 25.3c-.7.7-1.8.7-2.5 0L.5 17.8c-.7-.7-.7-1.8 0-2.5l11.2-11c.2-.2 2.1-.2 4.3-.1v.4c0 .6.1 1.4.3 2.2-.2.3-.4.7-.4 1.2 0 1.2.9 2.1 2.1 2.1s2-1 2-2.1c0-.7-.4-1.3-.9-1.7-.1-.7-.2-1.3-.2-1.6v-.2c.3 0 .5.1.8.1 1.5.1 1.5.1 1.7 1.6zm-6 8.3c-.2-.5-.5-1.1-1.1-1.7l.8-.8-.9-1-.9.9c-1.2-.8-2.5-.8-3.3.1-.9.9-.7 2.1 0 3.5.5 1 .6 1.5.2 1.9-.4.4-1 .2-1.5-.3-.6-.6-1-1.4-1.2-2l-1.5.7c.2.6.6 1.4 1.2 2l-.9.9.9.9 1-1c1.3.9 2.6.8 3.5-.1.9-.9 1-1.9.2-3.4-.5-1.1-.6-1.7-.3-2 .3-.3.8-.3 1.4.3.7.7.9 1.4 1 1.7l1.4-.6z"/></symbol>
<symbol id="i-telegram" xmlns="http://www.w3.org/2000/svg" viewBox="0 0 512 512"><path d="M23.8 218.6L477.9 43.5c21.1-7.6 39.5 5.1 32.7 37l-77.3 364.2c-5.7 25.8-21.1 32.1-42.5 19.9L273 377.9l-56.8 54.7c-6.3 6.3-11.6 11.6-23.7 11.6l8.4-119.8L419 127.2c9.5-8.4-2.1-13.1-14.6-4.7L134.7 292.2 18.5 256c-25.2-8-25.8-25.2 5.3-37.4z"/></symbol>
<symbol id="i-viber" xmlns="http://www.w3.org/2000/svg" viewBox="0 0 512 512"><path fill-rule="evenodd" clip-rule="evenodd" d="M275 293.2s9.1.8 14-5.3l9.6-12c4.6-6 15.7-9.8 26.6-3.7 14.4 8.1 33.1 20.9 45.8 32.9 7 5.9 8.7 14.7 3.9 23.9v.2c-4.9 8.7-11.5 16.9-19.9 24.5l-.2.1c-9.4 7.8-20.2 12.4-31.7 8.6l-.2-.3c-20.7-5.9-70.5-31.2-102.2-56.5-51.8-40.9-88.7-108.4-98.9-144.6l-.3-.2c-3.8-11.6.8-22.4 8.6-31.7l.1-.2c7.6-8.3 15.8-15 24.5-19.9h.2c9.2-4.8 18-3.2 23.9 3.9 7.8 8.1 22.5 27.5 32.9 45.8 6.1 10.9 2.3 22-3.7 26.6l-12 9.6c-6.1 4.9-5.3 14-5.3 14s17.8 67.3 84.3 84.3zm104.7-55.8c-3.6 0-6.5-2.9-6.5-6.4-.3-39-12-70.1-34.9-92.4-22.9-22.3-51.8-33.7-85.9-34-3.6 0-6.5-2.9-6.4-6.5 0-3.6 2.9-6.4 6.5-6.4 37.6.3 69.5 12.9 94.9 37.6 25.4 24.8 38.4 59 38.8 101.6 0 3.6-2.9 6.5-6.5 6.5.1 0 0 0 0 0zm-34-13.3h-.1c-3.6-.1-6.4-3.1-6.3-6.6.5-22.1-5.8-40.1-19.3-54.8-13.6-14.7-32-22.7-56.6-24.5-3.6-.3-6.3-3.4-6-6.9.3-3.6 3.4-6.3 6.9-6 27.6 2 49.5 11.7 65 28.7 15.6 17.1 23.3 38.5 22.7 63.8.1 3.5-2.8 6.3-6.3 6.3zM312.4 213c-3.4 0-6.3-2.7-6.5-6.2-1.1-22-11.5-32.7-32.6-33.9-3.6-.2-6.3-3.2-6.1-6.8.2-3.6 3.2-6.3 6.8-6.1 27.9 1.5 43.4 17.5 44.8 46.2.2 3.6-2.6 6.6-6.1 6.8h-.3zm145.5 74c-12.9 104-89 110.6-103 115.1-6 1.9-61.5 15.7-131.2 11.2 0 0-52 62.7-68.2 79-2.5 2.5-5.5 3.6-7.5 3.1-2.8-.7-3.6-4-3.5-8.8l.4-85.7C43.2 372.6 49.1 266.6 50.2 211.1c1.2-55.5 11.6-101 42.6-131.6 55.7-50.5 170.4-43 170.4-43 96.9.4 143.3 29.6 154.1 39.4 35.7 30.6 53.9 103.8 40.6 211.1zM444 49.9C431.3 38.2 379.9.9 265.3.4c0 0-135-8.1-200.9 52.3C27.7 89.4 14.9 143 13.5 209.5c-1.3 66.5-3.1 191.1 117 224.9h.1l-.1 51.5s-.7 20.9 13 25.2c16.6 5.1 26.4-10.7 42.3-27.8 8.7-9.4 20.7-23.2 29.8-33.7 82.2 6.9 145.3-8.9 152.5-11.2 16.6-5.4 110.4-17.4 125.7-142 15.8-128.6-7.6-209.8-49.8-246.5z"/></symbol>
</svg>